<?xml version="1.0" encoding="iso-8859-1"?>
<!-- Generator: Adobe Illustrator 19.0.0, SVG Export Plug-In . SVG Version: 6.00 Build 0)  -->
<svg version="1.1" id="Layer_1" xmlns="http://www.w3.org/2000/svg" xmlns:xlink="http://www.w3.org/1999/xlink" x="0px" y="0px"
	 viewBox="0 0 512 512" style="enable-background:new 0 0 512 512;" xml:space="preserve">
<g transform="translate(1 1)">
	<polygon style="fill:#FCC309;" points="7.533,468.333 502.467,468.333 502.467,417.133 7.533,417.133 	"/>
	<polygon style="fill:#FD9808;" points="476.867,468.333 502.467,468.333 502.467,417.133 476.867,417.133 	"/>
	<g>
		<polygon style="fill:#FCC309;" points="24.6,502.467 92.867,502.467 92.867,468.333 24.6,468.333 		"/>
		<polygon style="fill:#FCC309;" points="417.133,502.467 485.4,502.467 485.4,468.333 417.133,468.333 		"/>
	</g>
	<polygon style="fill:#FD9808;" points="459.8,502.467 485.4,502.467 485.4,468.333 459.8,468.333 	"/>
	<g>
		<polygon style="fill:#FFFFFF;" points="7.533,468.333 33.133,468.333 33.133,417.133 7.533,417.133 		"/>
		<polygon style="fill:#FFFFFF;" points="24.6,502.467 50.2,502.467 50.2,468.333 24.6,468.333 		"/>
	</g>
	<polygon style="fill:#FCC309;" points="220.867,502.467 289.133,502.467 289.133,468.333 220.867,468.333 	"/>
	<path style="fill:#FFDD09;" d="M417.133,16.067H306.2v102.4L255,75.8l-51.2,42.667v-102.4H92.867
		c-18.773,0-34.133,15.36-34.133,34.133V383c0,18.773,15.36,34.133,34.133,34.133h324.267c18.773,0,34.133-15.36,34.133-34.133V50.2
		C451.267,31.427,435.907,16.067,417.133,16.067"/>
	<path style="fill:#FD9808;" d="M425.667,383V50.2c0-18.773-15.36-34.133-34.133-34.133h25.6c18.773,0,34.133,15.36,34.133,34.133
		V383c0,18.773-15.36,34.133-34.133,34.133h-25.6C410.307,417.133,425.667,401.773,425.667,383"/>
	<path style="fill:#FFFFFF;" d="M84.333,383V50.2c0-18.773,15.36-34.133,34.133-34.133h-25.6c-18.773,0-34.133,15.36-34.133,34.133
		V383c0,18.773,15.36,34.133,34.133,34.133h25.6C99.693,417.133,84.333,401.773,84.333,383"/>
	<polygon style="fill:#54C9FD;" points="306.2,118.467 255,75.8 203.8,118.467 203.8,7.533 306.2,7.533 	"/>
	<path d="M502.467,476.867H7.533c-5.12,0-8.533-3.413-8.533-8.533v-51.2c0-5.12,3.413-8.533,8.533-8.533h494.933
		c5.12,0,8.533,3.413,8.533,8.533v51.2C511,473.453,507.587,476.867,502.467,476.867z M16.067,459.8h477.867v-34.133H16.067V459.8z"
		/>
	<path d="M92.867,511H24.6c-5.12,0-8.533-3.413-8.533-8.533v-34.133c0-5.12,3.413-8.533,8.533-8.533h68.267
		c5.12,0,8.533,3.413,8.533,8.533v34.133C101.4,507.587,97.987,511,92.867,511z M33.133,493.933h51.2v-17.067h-51.2V493.933z"/>
	<path d="M485.4,511h-68.267c-5.12,0-8.533-3.413-8.533-8.533v-34.133c0-5.12,3.413-8.533,8.533-8.533H485.4
		c5.12,0,8.533,3.413,8.533,8.533v34.133C493.933,507.587,490.52,511,485.4,511z M425.667,493.933h51.2v-17.067h-51.2V493.933z"/>
	<path d="M289.133,511h-68.267c-5.12,0-8.533-3.413-8.533-8.533v-34.133c0-5.12,3.413-8.533,8.533-8.533h68.267
		c5.12,0,8.533,3.413,8.533,8.533v34.133C297.667,507.587,294.253,511,289.133,511z M229.4,493.933h51.2v-17.067h-51.2V493.933z"/>
	<path d="M306.2,127c-1.707,0-4.267-0.853-5.12-1.707L255,86.893l-46.08,38.4c-2.56,1.707-5.973,2.56-9.387,0.853
		c-2.56-1.707-4.267-4.267-4.267-7.68V7.533c0-5.12,3.413-8.533,8.533-8.533h102.4c5.12,0,8.533,3.413,8.533,8.533v110.933
		c0,3.413-1.707,5.973-5.12,7.68C308.76,127,307.053,127,306.2,127z M255,67.267c1.707,0,4.267,0.853,5.12,1.707l37.547,30.72
		V16.067h-85.333v84.48l37.547-30.72C250.733,68.12,253.293,67.267,255,67.267z"/>
	<path d="M417.133,425.667H92.867C68.973,425.667,50.2,406.893,50.2,383V50.2c0-23.893,18.773-42.667,42.667-42.667H203.8
		c5.12,0,8.533,3.413,8.533,8.533v84.48l37.547-30.72c3.413-2.56,7.68-2.56,11.093,0l37.547,30.72v-84.48
		c0-5.12,3.413-8.533,8.533-8.533h110.933c23.893,0,42.667,18.773,42.667,42.667V383C459.8,406.893,441.027,425.667,417.133,425.667
		z M92.867,24.6c-14.507,0-25.6,11.093-25.6,25.6V383c0,14.507,11.093,25.6,25.6,25.6h324.267c14.507,0,25.6-11.093,25.6-25.6V50.2
		c0-14.507-11.093-25.6-25.6-25.6h-102.4v93.867c0,3.413-1.707,5.973-5.12,7.68c-2.56,1.707-6.827,0.853-9.387-0.853L255,86.893
		l-46.08,38.4c-2.56,1.707-5.973,2.56-9.387,0.853c-2.56-1.707-4.267-4.267-4.267-7.68V24.6H92.867z"/>
	<path d="M408.6,391.533h-42.667c-5.12,0-8.533-3.413-8.533-8.533c0-5.12,3.413-8.533,8.533-8.533H408.6
		c5.12,0,8.533,3.413,8.533,8.533C417.133,388.12,413.72,391.533,408.6,391.533z"/>
	<path d="M408.6,357.4h-59.733c-5.12,0-8.533-3.413-8.533-8.533c0-5.12,3.413-8.533,8.533-8.533H408.6
		c5.12,0,8.533,3.413,8.533,8.533C417.133,353.987,413.72,357.4,408.6,357.4z"/>
</g>
<g>
</g>
<g>
</g>
<g>
</g>
<g>
</g>
<g>
</g>
<g>
</g>
<g>
</g>
<g>
</g>
<g>
</g>
<g>
</g>
<g>
</g>
<g>
</g>
<g>
</g>
<g>
</g>
<g>
</g>
</svg>
